<svg version="1.2" xmlns="http://www.w3.org/2000/svg" viewBox="0 0 159 43" width="159" height="43">
	<style>
		.s0 { fill: #6e2030 } 
	</style>
	<g id="Layer 1">
		<g id="&lt;Group&gt;">
			<g id="gGBC7A.tif">
				<g id="&lt;Group&gt;">
					<path id="&lt;Compound Path&gt;" fill-rule="evenodd" class="s0" d="m28.95 28.18c0.26-0.39 0.48-0.81 0.79-1.16 0.16-0.19 0.45-0.31 0.71-0.4 0.44-0.17 0.88-0.14 1.22 0.23 0.4 0.42 0.42 0.93 0.13 1.55-0.23 0.49-0.61 0.86-1.13 0.76-0.38-0.07-0.7-0.43-0.99-0.63-0.2 0.91 0.27 1.94 1.13 2.42 2.01 1.13 4.13 1.3 6.31 0.63 2.59-0.79 4.7-2.29 6.29-4.46 1.72-2.34 3.35-4.75 5.04-7.11 2.16-3.01 4.56-5.8 7.44-8.15q0.27-0.2 0.59-0.42c-0.74-0.76-1.62-1.23-2.61-1.5-6.54-1.74-12.41-0.51-17.56 3.94-1.64 1.42-3.04 3.01-4.04 4.94-0.54 1.03-0.94 2.12-0.96 3.31-0.03 2.31 1.53 3.95 3.85 4.12 2.43 0.18 4.53-0.64 6.48-2 1.66-1.17 3.11-2.53 4.23-4.24 0.73-1.1 1.08-2.3 0.98-3.62-0.09-1.14-0.75-1.79-1.91-1.94-1.35-0.17-2.53 0.25-3.68 0.92-2.23 1.32-4 3.04-5.05 5.43-0.19 0.43-0.29 0.91-0.34 1.37-0.07 0.61 0.22 1.07 0.74 1.4q0.31 0.21 0.68 0.44c-0.32 0.31-0.62 0.24-0.91 0.08-0.92-0.51-1.41-1.62-1.3-2.77 0.14-1.58 0.92-2.83 2-3.93 1.47-1.49 3.13-2.67 5.2-3.19 1.1-0.27 2.2-0.33 3.31-0.08q1.39 0.31 1.68 1.7 0.45 2.25-0.81 4.17c-1.4 2.15-3.11 3.99-5.39 5.24-1.43 0.8-2.95 1.36-4.58 1.54-3.6 0.38-6.28-2.09-6.05-5.68 0.17-2.61 1.42-4.72 3.3-6.47 4.48-4.17 9.82-6.08 15.91-5.88 2.34 0.08 4.57 0.6 6.66 1.7q0.26 0.14 0.53 0.24c1.04 0.35 1.82-0.33 1.62-1.4-0.22-1.17 0.35-2 1.12-2.78 2.38-2.42 5.3-3.95 8.48-5.03 1.29-0.43 2.59-0.81 3.89-1.21q0.26-0.09 0.57-0.05c-3.07 1.29-6.31 2.15-9.25 3.88 0.44 0.37 0.82 0.69 1.21 1.03q0.51-0.62 1.03-1.19 0.27-0.29 0.61-0.49c0.65-0.4 1.11-0.3 1.58 0.29q0.21 0.28 0.44 0.62c0.83-1.01 1.95-1.47 3.08-1.91 1-0.39 1.12-0.33 1.41 0.74q0.64-0.46 1.26-0.89-0.01-0.06-0.02-0.12-0.63-0.07-1.25-0.14-0.01-0.07-0.03-0.14c0.44-0.15 0.86-0.35 1.31-0.43q2.8-0.5 5.61-0.93c1.15-0.18 2.3-0.3 3.46-0.44q0.08-0.03 0.16-0.09 0.45 0 0.89 0c-0.66 0.26-1.31 0.59-2 0.77-1.35 0.37-2.73 0.67-4.1 1q-0.13 0.04-0.26 0.09c-0.03 0.39 0.13 0.53 0.51 0.51q1.04-0.05 2.07 0.01 0.78 0.06 1.53 0.28c0.63 0.18 0.66 0.29 0.48 0.95 0.77 0.32 1.55 0.65 2.46 1.04-0.42 0.22-0.7 0.44-1.03 0.54q-2.19 0.72-4.4 1.36c-0.66 0.19-1.36 0.21-2.01 0.42-0.46 0.15-0.86 0.49-1.29 0.75q0.04 0.09 0.08 0.17 3.94-0.85 7.88-1.71 0.02 0.05 0.04 0.1c-0.17 0.09-0.34 0.2-0.52 0.26-3.15 1.06-6.38 1.74-9.72 1.78-0.61 0-1.09 0.28-1.63 0.55-0.79 0.38-1.69 0.57-2.57 0.69-0.47 0.07-0.85 0.12-1.1 0.56q-0.06 0.12-0.15 0.19c-0.63 0.39-0.41 0.85-0.14 1.33q0.2 0.36 0.34 0.76c0.19 0.46 0.51 0.58 0.98 0.47q1.98-0.48 3.97-0.94 0.45-0.1 0.9-0.17 0.02 0.06 0.05 0.13c-0.15 0.06-0.29 0.15-0.44 0.19q-2.18 0.59-4.37 1.16c-0.77 0.2-0.79 0.24-0.9 1.04q-0.15 1.09-0.4 2.17c-0.03 0.15-0.19 0.26-0.29 0.4q-0.07-0.03-0.15-0.06 0.09-0.74 0.19-1.47c0.31-2 0.1-1.74-1.41-1.61q-1.07 0.1-2.15 0.15c-0.27 0.02-0.54-0.06-0.8-0.09q0-0.07-0.01-0.13 0.14-0.06 0.27-0.09 1.69-0.16 3.38-0.32c0.61-0.06 0.76-0.25 0.57-0.83q-0.17-0.51-0.45-0.97-0.28-0.45-0.81-0.27-0.85 0.27-1.76 0.55c0.16 0.58-0.2 0.9-0.72 1.1-0.71 0.27-1.42 0.6-2.16 0.75-1.56 0.32-2.55-0.33-3.02-1.85q-0.14-0.43-0.32-0.92c-0.32 0.13-0.6 0.25-0.96 0.4 0.27 0.29 0.49 0.54 0.73 0.77 1.3 1.29 2 2.8 1.72 4.68-0.18 1.15-0.79 2.07-1.61 2.85-1.97 1.88-4.26 2.3-6.8 1.31-0.27-0.11-0.49-0.34-0.74-0.52q0.05-0.09 0.09-0.18 0.25 0.06 0.49 0.12c0.42 0.12 0.84 0.29 1.27 0.37 1.72 0.33 3.09-0.3 4.15-1.64 1.16-1.46 1.63-3.12 1.17-4.96-0.15-0.62-0.48-1.21-0.8-1.77-0.24-0.41-0.62-0.42-1.04-0.02-0.83 0.78-1.65 1.57-2.41 2.43-1.45 1.65-2.42 3.63-3.5 5.53-1.02 1.8-1.98 3.64-3.07 5.39-1.24 1.99-3.02 3.42-5.06 4.53-2.1 1.14-4.3 2.03-6.7 2.28-2.03 0.21-3.98-0.05-5.56-1.48-0.46-0.42-0.71-1.07-1.06-1.62q0-0.54 0-1.08zm30.79-19.81c-0.01 0.72 0.29 0.96 0.98 0.73 0.35-0.12 0.67-0.34 1.02-0.48 0.32-0.14 0.66-0.32 0.99-0.33 0.56-0.02 0.88-0.41 0.63-0.93-0.23-0.47-0.52-0.91-0.74-1.38-0.21-0.44-0.52-0.48-0.93-0.34-1.15 0.4-1.94 1.49-1.95 2.73zm3.46 3.18c0-0.71-0.48-1.43-1.21-1.69-0.77-0.26-1.54-0.28-2.23 0.25-0.26 0.21-0.39 0.5-0.21 0.83 0.22 0.41 0.43 0.84 0.72 1.21 0.67 0.85 0.69 0.84 1.72 0.5q0.28-0.08 0.56-0.18c0.41-0.17 0.65-0.46 0.65-0.92zm13.04-4.8c-0.55-1.11-2.5-1.65-3.43-1.07-0.48 0.3-0.89 1.04-0.78 1.39 0.14 0.39 0.87 0.69 1.5 0.58 0.53-0.09 1.07-0.17 1.58-0.33 0.39-0.12 0.74-0.36 1.13-0.57zm-8.38 3.2c-1.08-1.66-3.04-1.67-4.1 0 0.9 1.38 2.87 1.38 4.1 0zm3.5-6.77c-0.65-0.03-1.15 0.11-1.48 0.55q-0.66 0.87-1.22 1.82c-0.12 0.2-0.09 0.49-0.12 0.74 0.27 0.03 0.53 0.1 0.8 0.1 0.17-0.01 0.33-0.13 0.5-0.18 0.19-0.05 0.38-0.12 0.57-0.1 0.38 0.03 0.64-0.17 0.69-0.48 0.12-0.8 0.17-1.61 0.26-2.45zm-4.17 1.94c-0.11-0.38-0.17-0.65-0.26-0.91-0.1-0.29-0.3-0.28-0.48-0.07-0.5 0.62-1.02 1.23-1.47 1.89-0.45 0.64-0.15 1.67 0.52 1.99 0.38 0.18 0.73 0.09 0.87-0.28 0.32-0.88 0.56-1.79 0.82-2.62zm9.36-2.52c-1.17-0.4-3.18 0.23-3.87 1.19-0.33 0.46-0.18 0.94 0.39 1.01 0.34 0.04 0.72-0.02 1.04-0.14 0.5-0.18 0.95-0.5 1.45-0.69 0.64-0.24 0.85-0.76 0.99-1.37zm-6.53 6.52c0.22-0.08 0.65-0.19 1.02-0.41 0.5-0.29 0.5-0.77 0.05-1.16-0.73-0.62-1.82-0.73-2.61-0.2-0.16 0.1-0.3 0.41-0.26 0.59 0.14 0.6 0.97 1.18 1.8 1.18zm7.99-4.41q-0.16 0.02-0.36 0.05c-0.44 0.09-0.8 0.47-0.78 0.87 0.02 0.5 0.43 0.62 0.79 0.62q0.91 0 1.79-0.18c0.41-0.09 0.46-0.43 0.15-0.74-0.43-0.43-0.97-0.59-1.59-0.62zm3.59-1.42c-1.43-0.5-3.09-0.4-3.59 0.2 0.55 0.04 1.13-0.02 1.62 0.16 0.75 0.29 1.33 0.08 1.97-0.36zm1.51 1.53c-1.05-0.76-2.15-0.57-2.61 0.48 0.88-0.16 1.7-0.31 2.61-0.48zm-3.77-3.75q-0.01-0.1-0.03-0.21-2.32 0.37-4.64 0.73 0.02 0.11 0.03 0.21 2.32-0.37 4.64-0.73z"/>
					<path id="&lt;Compound Path&gt;" fill-rule="evenodd" class="s0" d="m103.41 15.29q0.19 0.06 0.29 0.1 1.3 0.41 0.51 1.51-0.18 0.26-0.44 0.45c-0.51 0.36-1.16 0.36-1.56 0.02-0.4-0.34-0.51-1.04-0.25-1.58 0.43-0.9 1.53-1.39 2.72-1.23 1.52 0.21 2.51 1.3 2.54 2.83 0.03 1.77-0.57 3.34-1.59 4.75-1.55 2.16-3.43 3.98-5.85 5.18-1.57 0.78-3.21 1.1-4.96 0.7-2.56-0.61-4.03-2.35-4.23-4.98-0.2-2.69 0.65-5.03 2.36-7.06 4.29-5.11 9.82-7.4 16.43-7.09 2.57 0.12 4.83 1.11 6.64 3.01q0.23 0.25 0.43 0.53c0.12 0.17 0.22 0.35 0.3 0.48 1.14-0.77 2.22-1.59 3.39-2.27 1.97-1.14 4.1-1.74 6.4-1.42 2.38 0.33 4.1 2.33 4.07 4.72-0.02 0.79-0.17 1.58-0.29 2.37-0.03 0.2-0.15 0.38-0.23 0.56q-0.08 0-0.16-0.01c-0.02-0.18-0.06-0.37-0.05-0.56q0.08-0.8 0.19-1.61c0.34-2.87-1.47-4.96-4.37-5.07-2.53-0.1-4.7 0.86-6.7 2.29-0.46 0.34-0.89 0.72-1.33 1.09-0.38 0.32-0.4 0.73-0.16 1.1 0.95 1.49 1.16 3.15 1.18 4.85 0.03 2.47-0.54 4.79-1.93 6.87-1.54 2.33-3.67 3.98-6.15 5.17-2.83 1.36-5.8 1.76-8.91 1.35q-3.24-0.43-6.51 0.01-2.98 0.4-5.98-0.05c-0.39-0.06-0.78-0.22-1.14-0.39-0.39-0.18-0.37-0.5-0.08-0.74q0.36-0.3 0.8-0.46c1.15-0.46 2.34-0.5 3.54-0.32q2.33 0.32 4.64 0.77c2.06 0.41 3.88-0.16 5.61-1.21 1.96-1.2 3.41-2.88 4.7-4.73 1.82-2.61 3.61-5.24 5.48-7.81 0.85-1.15 1.89-2.17 2.84-3.24q0.17-0.21 0.35-0.41c0.32-0.33 0.3-0.64 0.02-1-1.52-1.98-3.56-3.03-6.01-3.32-4.61-0.53-8.59 0.9-12.05 3.89-1.61 1.39-3.04 2.93-4.13 4.75-0.98 1.63-1.69 3.36-1.86 5.27-0.22 2.42 1.5 4.3 3.97 4.37 1.72 0.05 3.28-0.48 4.68-1.42 1.95-1.3 3.69-2.86 4.94-4.89 0.9-1.46 1.28-3.03 1.02-4.73-0.2-1.33-2.11-2.13-3.12-1.39zm-3.27 16.31c0.14 0.06 0.19 0.09 0.25 0.1q2.39 0.45 4.8 0.28c1.57-0.11 3.11-0.39 4.46-1.21 4.72-2.85 7.42-7.02 7.96-12.52 0.14-1.43-0.28-2.8-0.85-4.29-0.41 0.54-0.79 0.98-1.1 1.46-0.88 1.34-1.77 2.67-2.57 4.05-1.06 1.8-1.98 3.68-3.06 5.46-1.29 2.13-3.03 3.8-5.38 4.77-1.48 0.61-2.95 1.24-4.51 1.9zm-4.27 0.15q0-0.08 0-0.17-3.3-0.18-6.6-0.34-0.24 0-0.48 0.09c-0.12 0.05-0.22 0.15-0.33 0.22 0.11 0.07 0.22 0.18 0.34 0.19 1.54 0.09 3.07 0.19 4.6 0.22 0.82 0.01 1.65-0.13 2.47-0.21z"/>
					<path id="&lt;Compound Path&gt;" fill-rule="evenodd" class="s0" d="m60.57 28.95c-0.6 0.68-1.09 1.3-1.65 1.85-0.37 0.37-0.8 0.73-1.27 0.98-1.28 0.66-2.61 0.09-3.05-1.29-0.52-1.62-0.08-3.03 1-4.27 1.7-1.94 3.84-3.13 6.3-3.79 0.96-0.26 1.34-0.12 1.88 0.65 1.9-0.92 1.89-0.49 2.82-0.45q-0.6 1.04-1.18 2.01c-0.94 1.53-1.92 3.04-2.81 4.6-0.29 0.5-0.41 1.12-0.52 1.7-0.04 0.19 0.14 0.55 0.32 0.63 0.18 0.08 0.55 0 0.7-0.14 0.98-0.89 1.98-1.77 2.85-2.75 1.47-1.64 2.85-3.36 4.28-5.04q0.45-0.51 0.99-0.95c0.8-0.66 2.01-0.19 2.18 0.84 0.18 1.08-0.05 2.11-0.59 3.02-0.93 1.57-1.94 3.1-2.94 4.63-0.54 0.83-1.47 0.99-2.5 0.44q0.54-0.87 1.07-1.74 1.79-2.95 3.57-5.9c0.06-0.11 0.15-0.25 0.14-0.36-0.02-0.23-0.04-0.52-0.18-0.67-0.07-0.08-0.46-0.01-0.6 0.11q-0.78 0.74-1.48 1.55c-1.9 2.26-3.62 4.68-5.83 6.67-0.68 0.61-1.41 1.09-2.34 0.66-0.95-0.44-1.22-1.31-1.19-2.29 0-0.19 0.01-0.38 0.03-0.7zm-4.78 1.31q0.04 0.03 0.07 0.05c0.06 0.24 0.09 0.48 0.17 0.71 0.22 0.64 0.57 0.78 1.17 0.45 0.35-0.19 0.7-0.38 0.99-0.64 1.9-1.66 3.35-3.69 4.62-5.85 0.25-0.42 0.4-0.95 0.41-1.43 0.02-0.7-0.4-0.96-1.04-0.67-0.58 0.26-1.16 0.55-1.67 0.92-1.64 1.19-2.84 2.78-3.87 4.5-0.36 0.61-0.57 1.31-0.85 1.96z"/>
					<path id="&lt;Compound Path&gt;" fill-rule="evenodd" class="s0" d="m128.75 22.73q-2.73 4.56-5.44 9.07 0.06 0.06 0.11 0.13c0.47-0.26 0.96-0.5 1.41-0.79 1.84-1.15 3.31-2.7 4.72-4.32 0.15-0.17 0.26-0.54 0.68-0.38-0.66 1.13-1.56 2.01-2.46 2.88q-1.84 1.78-4.09 3.01c-0.72 0.39-1.2 1-1.59 1.69-1.43 2.57-3.15 4.92-5.45 6.8-1.05 0.85-2.19 1.56-3.49 1.94q-0.78 0.22-1.59 0.24c-1.25 0.02-1.98-0.99-1.61-2.19 0.39-1.28 1.26-2.23 2.24-3.09 1.59-1.4 3.52-2.24 5.4-3.16 0.72-0.35 1.46-0.67 2.15-1.06 0.98-0.56 1.37-1.6 1.91-2.5q1.48-2.51 2.95-5.02 0.69-1.16 1.38-2.32c0.62-1.08 1.47-1.39 2.77-0.93zm-9.09 11.52q-0.08-0.07-0.16-0.15-0.95 0.44-1.88 0.9c-2.11 1.03-4.16 2.14-5.89 3.76-0.77 0.73-1.42 1.54-1.37 2.7 0.03 0.77 0.34 1.12 1.13 1.16 0.86 0.04 1.7-0.12 2.36-0.67 0.84-0.71 1.72-1.44 2.35-2.32 1.24-1.73 2.32-3.58 3.46-5.38z"/>
					<path id="&lt;Path&gt;" class="s0" d="m82.03 26.29c0.43 0.19 0.18 0.46 0.05 0.64q-0.63 0.81-1.31 1.58c-0.75 0.86-1.5 1.73-2.29 2.55-0.31 0.32-0.72 0.57-1.13 0.76-1.49 0.67-2.96-0.35-2.71-1.96 0.12-0.81 0.5-1.62 0.91-2.35 0.57-1.02 1.29-1.95 1.93-2.94 0.17-0.27 0.32-0.59 0.36-0.9 0.03-0.26-0.04-0.61-0.21-0.78-0.12-0.13-0.54-0.12-0.71 0q-1.19 0.8-2.32 1.69c-0.22 0.17-0.38 0.43-0.56 0.65q-0.09-0.07-0.18-0.14 0.13-0.24 0.28-0.48c0.61-0.87 1.37-1.56 2.33-2.04 0.68-0.33 1.33-0.33 1.93 0.15 0.68 0.54 1.14 1.21 0.82 2.08q-0.57 1.54-1.35 2.98c-0.47 0.89-1.07 1.72-1.6 2.58-0.22 0.35-0.36 0.72 0.02 1.07 0.36 0.33 0.77 0.3 1.11 0q1.02-0.95 2-1.95 0.72-0.73 1.38-1.52c0.43-0.53 0.82-1.09 1.25-1.67z"/>
					<path id="&lt;Path&gt;" class="s0" d="m123.36 22.78q-0.5 0.82-0.99 1.62-1.78 2.93-3.55 5.86c-0.24 0.39-0.36 0.78 0.04 1.16 0.4 0.38 0.78 0.21 1.16-0.03 0.32-0.21 0.63-0.46 0.95-0.69q0.19-0.13 0.41-0.24 0.08 0.16 0.07 0.17c-0.53 0.44-1.03 0.95-1.62 1.3-0.62 0.37-1.27 0.16-1.82-0.28-0.56-0.44-0.79-0.99-0.71-1.72 0.12-1.13 0.68-2.06 1.25-3 0.68-1.15 1.35-2.31 2.08-3.43 0.65-1.02 1.54-1.23 2.73-0.72z"/>
					<path id="&lt;Path&gt;" class="s0" d="m69.13 11.6c0.92-0.19 1.83-0.38 2.8-0.59q-0.21-0.19-0.24-0.22 4.87-1.11 9.79-2.24 0.02 0.1 0.04 0.19c-4.02 1.4-8.12 2.46-12.33 3.09q-0.03-0.11-0.06-0.23z"/>
					<path id="&lt;Path&gt;" class="s0" d="m77.89 0.28q-4.38 0.93-8.84 1.88c0.99-0.81 6.77-2.07 8.84-1.88z"/>
				</g>
			</g>
		</g>
	</g>
</svg>